<?xml version="1.0" encoding="UTF-8" standalone="no"?>
<svg
   xmlns:serif="http://www.serif.com/"
   xmlns:dc="http://purl.org/dc/elements/1.1/"
   xmlns:cc="http://creativecommons.org/ns#"
   xmlns:rdf="http://www.w3.org/1999/02/22-rdf-syntax-ns#"
   xmlns:svg="http://www.w3.org/2000/svg"
   xmlns="http://www.w3.org/2000/svg"
   xmlns:sodipodi="http://sodipodi.sourceforge.net/DTD/sodipodi-0.dtd"
   xmlns:inkscape="http://www.inkscape.org/namespaces/inkscape"
   width="100%"
   height="100%"
   viewBox="0 0 17717 17717"
   version="1.1"
   xml:space="preserve"
   style="fill-rule:evenodd;clip-rule:evenodd;stroke-linejoin:round;stroke-miterlimit:2;"
   id="svg94"
   sodipodi:docname="Flexibles_Logo.svg"
   inkscape:version="1.0.1 (3bc2e813f5, 2020-09-07)"><metadata
     id="metadata100"><rdf:RDF><cc:Work
         rdf:about=""><dc:format>image/svg+xml</dc:format><dc:type
           rdf:resource="http://purl.org/dc/dcmitype/StillImage" /><dc:title></dc:title></cc:Work></rdf:RDF></metadata><defs
     id="defs98" /><sodipodi:namedview
     pagecolor="#ffffff"
     bordercolor="#666666"
     borderopacity="1"
     objecttolerance="10"
     gridtolerance="10"
     guidetolerance="10"
     inkscape:pageopacity="0"
     inkscape:pageshadow="2"
     inkscape:window-width="1368"
     inkscape:window-height="850"
     id="namedview96"
     showgrid="false"
     inkscape:zoom="0.019247051"
     inkscape:cx="8855.8984"
     inkscape:cy="8720.1137"
     inkscape:window-x="-6"
     inkscape:window-y="-6"
     inkscape:window-maximized="1"
     inkscape:current-layer="g92" /><rect
     id="Artboard1"
     x="0"
     y="0"
     width="17716.5"
     height="17716.5"
     style="fill:none;" /><clipPath
     id="_clip1"><rect
       id="Artboard11"
       serif:id="Artboard1"
       x="0"
       y="0"
       width="17716.5"
       height="17716.5" /></clipPath><g
     clip-path="url(#_clip1)"
     id="g92"><circle
       cx="8730.88"
       cy="6998.78"
       r="5064.36"
       style="fill:#9c9c9c;"
       id="circle5" /><clipPath
       id="_clip2"><rect
         x="4576.36"
         y="3263.06"
         width="6043.6"
         height="7942.43"
         id="rect7" /></clipPath><g
       clip-path="url(#_clip2)"
       id="g86"><path
         d="M10596.7,9170.43c0,-0 7.323,-303.277 -12.193,-354.23c-13.792,-35.943 -118.498,-32.045 -179.087,-26.621l1.599,8.814c203.163,30.254 -209.596,203.591 -1333.68,539.465c-1193.77,356.674 -2171.49,369.42 -2371.07,369.42c-199.575,-0 -203.231,-120.106 -217.873,-222.016c-14.655,-101.905 75.064,-120.116 75.064,-120.116l97.032,-9.091c0,-0 837.967,-62.869 1940.8,-294.799c1072.93,-225.67 1933.48,-575.059 1933.48,-575.059c29.3,-105.55 -29.291,-192.903 -29.291,-192.903c0,0 -589.97,244.599 -1629.55,491.35c-1472.07,349.399 -2116.57,371.24 -2116.57,371.24c-0,-0 -85.395,7.712 -218.91,-0c-133.515,-7.712 -172.703,-172.595 -153.86,-277.914c18.865,-105.32 160.384,-115.161 160.384,-115.161c0,0 895.327,-111.058 1924.32,-309.365c1378.7,-265.69 1964.6,-531.383 1964.6,-531.383c29.3,-105.55 -29.297,-192.893 -29.297,-192.893c-0,-0 -575.2,252.524 -1613.06,440.386c-1045.47,189.259 -2268.54,411.274 -2268.54,411.274c-245.424,44.523 -263.224,-119.906 -263.224,-262.469c0,-122.608 175.336,-134.239 175.336,-134.239c0,0 897.161,-167.418 1933.48,-353.043c1036.3,-185.615 1966.43,-447.675 1966.43,-447.675c29.287,-105.55 -29.3,-192.903 -29.3,-192.903c-0,0 -227.382,60.997 -653.122,156.473c-0,-0.095 -30.215,-413.753 320.406,-470.363c165.701,-33.465 263.139,-53.709 263.139,-53.709c29.29,-105.55 -29.3,-192.893 -29.3,-192.893c-0,-0 -140.292,30.678 -400,81.326c-0.512,-0.115 -248.548,-51.76 -322.814,-358.477c398.168,-55.923 660.57,-86.801 660.57,-86.801c29.3,-105.553 -29.297,-192.907 -29.297,-192.907c-0,0 -600.544,54.591 -1644.18,207.46c-1043.64,152.862 -2277.69,476.783 -2277.69,476.783c-142.554,36.41 -239.8,31.675 -270.983,-148.561c-36.624,-211.747 183.095,-226.303 183.095,-226.303c-0,0 888.007,-249.314 1924.32,-434.939c1036.31,-185.615 2015.87,-231.103 2015.87,-231.103c29.286,-105.554 -29.301,-192.903 -29.301,-192.903c0,-0 -620.676,-12.736 -1664.32,140.126c-1043.63,152.872 -2268.54,485.882 -2268.54,485.882c-116.257,30.797 -269.148,46.102 -281.556,-137.615c-12.48,-184.483 179.026,-215.415 179.026,-215.415c0,-0 864.205,-272.978 1900.52,-458.597c1036.3,-185.615 2039.66,-181.981 2039.66,-181.981c29.287,-105.553 -29.301,-192.893 -29.301,-192.893c0,0 -644.489,-61.875 -1688.12,90.984c-1043.64,152.872 -2244.73,509.55 -2244.73,509.55c0,-0 -105.684,33.529 -126.884,33.529c-21.201,-0 -135.743,-2.109 -135.743,-187.639c0,-185.544 93.325,-212.958 333.036,-274.084c239.701,-61.132 1419.98,-394.365 2705.3,-532.661c0,-0 1094.9,-98.262 926.462,69.153c263.65,-0 92.745,-424.61 14.642,-623.595c-78.103,-198.984 -202.611,-293.585 -202.611,-293.585c-236.823,-405.223 -695.754,-368.816 -695.754,-368.816c-270.953,-172.32 -1285.93,-113.008 -1397.35,-113.008c-111.431,0 -103.993,45.031 -103.993,45.031c-2846.49,262.046 -2696.46,2179.62 -2696.46,2355.59c-0,175.977 238.593,138.496 238.593,138.496l-23.684,-126.527c430.409,-271.951 488.86,-234.747 518.157,-58.231c29.301,176.517 -190.383,250.65 -190.383,250.65c-0,-0 -187.669,64.204 -298.419,110.075c-110.739,45.858 -144.579,79.502 -144.579,171.228c0,91.73 21.542,119.249 21.542,119.249c-0,-0 27.687,-88.655 279.956,-168.157c252.28,-79.503 316.952,-89.449 316.952,-89.449c34.501,0 117.464,50.445 117.464,214.226c0,163.784 -188.415,206.232 -188.415,206.232c-0,-0 -187.669,38.953 -298.418,84.821c-110.75,45.858 -144.576,40.349 -144.576,132.075c-0,91.73 21.538,119.262 21.538,119.262c-0,0 27.691,-49.515 279.96,-129.018c252.266,-79.502 316.951,-64.203 316.951,-64.203l-6.439,-5.234c0.184,-0 99.996,0.149 123.764,174.703c23.799,174.696 -89.603,200.574 -89.603,200.574c-0,0 -243.027,58.095 -344.557,91.726c-101.531,33.644 -227.723,30.638 -206.151,137.628l21.562,107.005c-0,-0 86.138,-79.513 535.295,-159.015c70.354,-0 156.687,13.335 178.665,186.218c21.974,172.873 -89.467,186.846 -89.467,186.846c-0,-0 -279.936,67.278 -553.744,103.95c0,-0 -18.448,122.302 40,180.384c-0,-0 113.829,0.03 264.568,-27.502c150.739,-27.519 224.599,-42.817 273.807,-42.817c88.976,-0 145.388,8.593 169.187,172.364c23.802,163.774 -98.437,182.32 -98.437,182.32c-0,-0 -187.669,67.278 -538.386,67.278c0,0 -21.521,110.045 15.389,180.385c0,-0 239.971,-36.675 430.695,-36.675l190.739,-0c54.924,-0 102.533,47.088 115.353,199.947c12.814,152.862 -130.721,151.75 -130.721,151.75c-587.584,76.462 -547.594,-18.369 -547.594,-18.369c-0,-0 -69.236,117.723 24.611,210.988c-0,-0 9.208,27.498 547.594,12.224c159.371,-0 197.655,47.407 217.798,191.167c20.143,143.761 -97.82,151.293 -97.82,151.293c-541.179,52.977 -581.008,-31.726 -582,-55.275c-40.883,271.971 249.752,241.771 249.752,241.771l353.8,8.929c-0.512,-0.051 -1.109,-0.051 -1.655,-0.051c3.241,0.051 5.928,0.116 9.38,0.221l-0.853,-0l5.437,0.118c233.446,5.858 178.119,315.382 178.119,315.382c-0,0 -122.08,0 -312.487,-24.227c-190.418,-24.217 -230.066,-164.683 -230.066,-164.683c-150.749,72.669 -145.889,130.744 -145.889,145.235c-0,14.567 131.83,485.268 454.078,795.884c322.252,310.616 626.819,423.668 626.819,423.668l496.241,272.802c511.775,98.031 615.601,51.414 1039.82,27.349c169.647,-9.623 898.461,-267.669 898.461,-267.669c473.583,-65.523 742.107,-293.616 742.107,-293.616c390.566,-114.079 532.236,-332.396 532.236,-332.396c602.986,-259.588 436.93,-1106.42 436.93,-1106.42Zm-4571.1,-2042.15c10.146,-83.645 43.304,-120.14 187.839,-137.957c0,0 897.161,-240.215 1933.47,-425.83c336.433,-60.275 664.578,-112.798 954.606,-156.337c-0,0.183 21.742,407.929 -266.004,479.231c-92.407,15.722 -188.873,31.844 -289.455,48.339c-1040.86,170.595 -2244.74,429.471 -2244.74,429.471c0,0 -108.157,29.746 -184.289,6.878c-76.899,-23.095 -99.194,-179.991 -91.424,-243.795Zm111.762,588.53c10.187,-129.832 185.929,-140.53 185.929,-140.53c0,0 856.875,-178.337 1893.19,-363.952c223.03,-39.949 443.42,-80.722 652.109,-120.14c-0,0 293.173,-1.451 413.226,335.128c-175.602,37.194 -372.203,77.458 -589.278,119.855c-1043.64,203.815 -2281.36,425.827 -2281.36,425.827c-267.552,55.692 -283.998,-126.357 -273.817,-256.188Zm-872.895,1411.35c0.311,-2.074 0.225,-3.749 0.577,-5.857c-0.01,-0 -0.757,2.213 -0.577,5.857Z"
         style="fill:#fff;fill-rule:nonzero;"
         id="path10" /><path
         d="M5660.92,9377.79l262.392,6.651c-13.182,-2.956 -27.316,-4.895 -42.994,-5.285l-5.437,-0.119l0.853,0c-3.452,-0.115 -6.139,-0.179 -9.379,-0.22c0.545,0 1.142,0 1.654,0.051l-304.984,-7.678c52.374,11.037 97.895,6.6 97.895,6.6Z"
         style="fill:none;fill-rule:nonzero;"
         id="path12" /><path
         d="M5821.96,8850.12c-25.801,-6.227 -56.968,-9.153 -95.463,-9.153c-168.88,4.78 -285.598,5.384 -366.385,3.889c49.144,6.25 170.04,12.481 461.848,5.264Z"
         style="fill:none;fill-rule:nonzero;"
         id="path14" /><path
         d="M9804.89,6711.33c85.763,-16.719 157.175,-31.027 216.168,-43.031l-68.618,-378.626c-114.883,14.671 -276.355,35.912 -470.378,63.18c74.28,306.717 322.327,358.359 322.828,358.477Zm-154.245,635.649c204.998,-45.983 363.486,-83.855 473.294,-110.869l-68.263,-376.643c-25.976,5.285 -53.666,10.888 -84.618,17.139c-350.631,56.621 -320.413,470.278 -320.413,470.373Zm-3129.6,1233.86c0,-0 1223.07,-222.015 2268.54,-411.274c702.286,-127.13 1192.4,-283.775 1436.14,-371.807l-66.537,-367.236c-316.355,83.824 -1025.1,263.107 -1792.55,400.555c-1036.31,185.615 -1933.48,353.04 -1933.48,353.04c-0,0 -175.34,11.634 -175.34,134.239c0,142.567 17.8,307.005 263.224,262.483Zm-439.433,-2431.26c-0,-0 1224.91,-333.023 2268.53,-485.882c695.308,-101.845 1202.53,-130.14 1463.91,-137.737l-66.667,-367.68c-330.137,7.617 -1089.62,40.285 -1867.78,179.672c-1036.31,185.615 -1900.52,458.594 -1900.52,458.594c-0,-0 -191.506,30.932 -179.023,215.415c12.404,183.71 165.285,168.411 281.546,137.618Zm109.862,607.811c0,0 1234.06,-323.921 2277.69,-476.783c694.09,-101.652 1191.88,-159.832 1447.64,-187.405l-66.145,-365.098c-335.464,22.763 -1063.61,83.506 -1822.77,219.483c-1036.3,185.615 -1924.32,434.939 -1924.32,434.939c0,0 -219.708,14.556 -183.095,226.304c31.197,180.235 128.44,184.96 270.993,148.56Zm-234.349,-1193.79c-0,0 1201.09,-356.677 2244.72,-509.549c719.106,-105.32 1248.58,-108.709 1508.46,-100.625l-51.03,-281.527c5.553,-16.549 9.325,-31.455 12.289,-45.648c-70.654,-101.336 -938.75,-23.519 -938.75,-23.519c-1285.33,138.306 -2465.6,471.529 -2705.3,532.665c-239.712,61.133 -333.036,88.54 -333.036,274.08c-0,185.53 114.545,187.639 135.742,187.639c21.2,-0 126.899,-33.516 126.899,-33.516Zm344.202,1801.61c-0,-0 1203.87,-258.877 2244.74,-429.471c100.593,-16.506 197.048,-32.618 289.455,-48.34c287.747,-71.302 266.004,-479.061 266.004,-479.23c-290.038,43.529 -618.173,96.051 -954.606,156.336c-1036.3,185.615 -1933.47,425.831 -1933.47,425.831c-144.534,17.827 -177.692,54.312 -187.839,137.957c-7.769,63.804 14.526,220.71 91.425,243.805c76.121,22.848 184.289,-6.888 184.289,-6.888Zm454.071,1790.68c0,0 644.5,-21.841 2116.57,-371.24c709.662,-168.445 1209.56,-335.809 1455.53,-425.122l-67.052,-370.108c-262.628,95.648 -837.145,279.792 -1793.12,464.017c-1029,198.307 -1924.32,309.369 -1924.32,309.369c-0,-0 -141.52,9.84 -160.384,115.16c-18.854,105.319 20.334,270.212 153.859,277.914c133.526,7.702 218.91,0.01 218.91,0.01Zm-344.215,-1182.87c-0,0 1237.72,-222.015 2281.36,-425.83c217.075,-42.407 413.673,-82.672 589.278,-119.852c-120.053,-336.572 -413.226,-335.131 -413.226,-335.131c-208.678,39.417 -429.079,80.18 -652.109,120.14c-1036.3,185.615 -1893.19,363.952 -1893.19,363.952c-0,-0 -175.742,10.702 -185.933,140.533c-10.167,129.818 6.279,311.867 273.821,256.188Zm4003.92,826.922c-2.695,-0.519 -5.092,-1.092 -8.066,-1.546l-1.6,-8.813l-43.26,-238.816c-301.256,111.516 -975.329,344.43 -1764.87,510.482c-1102.83,231.937 -1940.8,294.799 -1940.8,294.799l-97.032,9.088c-0,0 -89.72,18.21 -75.064,120.12c14.645,101.905 18.311,222.015 217.873,222.015c199.565,-0 1177.3,-12.746 2371.07,-369.423c868.332,-259.429 1311.82,-421.824 1375.21,-496.275c-13.387,-18.485 -25.464,-32.797 -33.468,-41.631Z"
         style="fill:#555;fill-rule:nonzero;"
         id="path16" /><path
         d="M9640.84,6868.24c8.588,204.218 -58.247,369.453 -230.346,387.474c-148.137,15.529 -305.942,-173.954 -314.523,-378.173c-8.588,-204.184 98.3,-361.653 247.173,-367.83c148.822,-6.166 289.114,154.364 297.696,358.529Z"
         style="fill-rule:nonzero;"
         id="path18" /><path
         d="M4909.32,6301.92l-11.16,-58.963c143.045,-93.635 443.625,-163.93 473.202,-170.127c-25.856,-37.258 -57.332,-51.949 -75.524,-51.949c-0,-0 -64.672,9.945 -316.952,89.448c-252.259,79.502 -279.96,168.157 -279.96,168.157c42.889,42.651 210.394,23.434 210.394,23.434Zm542.638,303.392c-29.897,-25.966 -57.96,-26.271 -58.045,-26.271l6.439,5.234c0,-0 -64.685,-15.299 -316.951,64.204c-252.269,79.502 -279.96,129.018 -279.96,129.018c57.383,25.729 196.281,1.959 196.281,1.959c121.929,-121.177 452.281,-173.107 452.281,-173.107c-0,0 -0.014,-0.413 -0.045,-1.037Z"
         style="fill-rule:nonzero;"
         id="path20" /><path
         d="M5667.76,8051.2c-70.354,14.132 -208.101,36.651 -420.316,36.651l-8.271,-43.76c-0,0 -199.337,72.957 -159.286,99.747c0.225,-1.312 0.546,-3.105 0.546,-3.105c350.706,-0 538.385,-67.275 538.385,-67.275c0,-0 24.195,-3.753 48.942,-22.258Zm-99.729,-864.264c-37.08,-49.536 -88.676,-55.255 -133.802,-55.255c-449.157,79.502 -535.295,159.015 -535.295,159.015c102.308,15.159 181.84,-11.312 181.84,-11.312c268.18,-114.238 414.549,-111.252 487.257,-92.448Zm133.866,1449.2c0,-0 61.627,0.179 100.507,-42.679c-120.35,13.475 -352.114,44.225 -457.448,9.333l-13.768,-72.652c-0,0 -147.99,26.899 -176.97,92.218c-0.211,0.454 -0.116,0.908 -0.287,1.332c3.176,19.536 52.149,76.974 547.966,12.448Zm-260.11,478.098l-19.996,-105.668c-0,-0 -106.998,25.963 -157.325,119.597c1.003,23.55 40.822,108.252 582,55.275c0,0 36.057,-3.241 64.952,-29.905c-108.843,4.237 -330.628,7.258 -469.631,-39.299Zm-180.21,48.804c0.556,-11.241 1.034,-22.407 2.889,-34.865c-6.436,11.994 -6.896,23.624 -2.889,34.865Z"
         style="fill-rule:nonzero;"
         id="path22" /><path
         d="M5775.56,8615.14c-4.348,2.563 -8.697,4.776 -13.045,6.746c4.338,-1.99 8.687,-4.153 13.045,-6.746Zm-13.045,6.746c-4.56,2.078 -9.049,3.834 -13.448,5.349c4.485,-1.515 8.803,-3.271 13.448,-5.349Zm33.553,-22.522c-3.465,3.244 -6.981,6.38 -10.678,9.068c3.666,-2.699 7.213,-5.804 10.678,-9.068Zm-10.668,9.068c-3.264,2.362 -6.514,4.715 -9.84,6.708c3.37,-2.013 6.545,-4.312 9.84,-6.708Zm-44.328,21.335c-4.679,1.326 -9.103,2.417 -13.206,3.241c4.178,-0.803 8.411,-1.915 13.206,-3.241Zm7.995,-2.532c-2.729,0.912 -5.386,1.824 -7.995,2.532c2.644,-0.752 5.242,-1.6 7.995,-2.532Zm-36.057,8.126c-3.124,0.274 -6.439,0.627 -8.155,0.678c1.876,-0.085 4.785,-0.339 8.155,-0.678Zm89.378,-41.916c-2.005,2.19 -4.208,3.929 -6.32,5.919c23.598,-22.15 41.385,-57.17 36.535,-114.977c-12.821,-152.873 -60.429,-199.951 -115.354,-199.951l-190.738,-0c-78.188,-0 -164.477,6.197 -239.306,13.454l43.963,232.25l13.772,72.648c105.333,34.881 337.095,4.142 457.448,-9.343Zm-83.273,41.122c-2.207,0.339 -4.229,0.604 -6.095,0.794c1.971,-0.19 3.687,-0.455 6.095,-0.794Zm8.751,-1.569c-3.028,0.573 -6.149,1.22 -8.751,1.559c2.667,-0.362 5.627,-0.932 8.751,-1.559Zm-62.052,-580.598c-5.351,3.838 -10.699,7.194 -15.71,9.78c5.011,-2.586 10.328,-5.942 15.71,-9.78Zm51.435,-161.282c-23.799,-163.781 -80.211,-172.364 -169.187,-172.364c-49.208,-0 -123.078,15.298 -273.807,42.82c-30.61,5.57 -59.133,9.807 -86.053,13.336l50.979,269.165l3.055,16.261l5.215,27.499c211.724,-0 349.277,-22.404 419.771,-36.536c31.098,-22.902 63.329,-68.645 50.027,-160.181Zm-49.495,160.065c-0.17,0.021 -0.371,0.085 -0.542,0.116c-0.46,0.339 -0.951,0.762 -1.408,1.101c0.661,-0.484 1.299,-0.739 1.95,-1.217Zm243.668,1102.34c-25.262,23.305 -55.989,28.718 -63.311,29.715c8.752,-0.793 115.524,-13.166 96.179,-151.103c-20.143,-143.76 -58.417,-191.167 -217.798,-191.167c-149.194,4.237 -256.648,5.118 -335.638,4.261l30.931,163.326l19.996,105.669c139.003,46.556 360.788,43.536 469.641,39.299Zm-393.745,-2399.78c-11.19,-82.119 -39.171,-125.339 -65.719,-148.431c0.031,0.624 0.031,1.027 0.031,1.027c-0,-0 -330.338,51.919 -452.278,173.106l52.237,275.816c10.648,-2.817 21.231,-5.803 31.559,-9.217c101.53,-33.631 344.557,-91.726 344.557,-91.726c-0,-0 113.423,-25.878 89.613,-200.575Zm-104.364,-518.648c-0,-77.458 -18.738,-128.865 -41.951,-162.265c-29.577,6.196 -330.167,76.492 -473.202,170.127l10.819,57.129l41.053,216.866c111.827,-41.736 274.875,-75.604 274.875,-75.604c0,-0 188.406,-42.468 188.406,-206.253Zm154.626,951.736c-9.239,-12.342 -19.365,-21.983 -30.119,-29.43c10.754,7.481 20.88,17.088 30.119,29.43Zm312.382,2192.32l-5.437,-0.118l0.853,-0c-3.452,-0.116 -6.139,-0.18 -9.379,-0.221c0.545,0 1.142,0 1.654,0.051l-353.8,-8.929c0,0 -9.294,0.912 -23.854,0.977l25.529,134.723c-0,-0 0.938,2.722 2.653,7.501c11.255,29.174 63.236,136.313 227.413,157.185c190.407,24.224 312.487,24.224 312.487,24.224c-0,-0 55.327,-309.535 -178.119,-315.393Zm-569.542,-3751.86c-29.297,-176.516 -71.407,-218.371 -518.157,58.231l55.276,291.986c111.728,-44.577 272.484,-99.567 272.484,-99.567c0,-0 219.698,-74.133 190.397,-250.65Zm1.003,396.519c17.705,5.891 40.225,21.122 59.59,49.027c-19.399,-27.956 -41.79,-43.339 -59.59,-49.027Zm209.071,1123.67c-16.341,-7.912 -33.51,-11.95 -50.552,-13.929c17.053,1.949 34.211,6.081 50.552,13.929Zm-68.949,-542.228c-29.874,-25.902 -57.916,-26.217 -57.991,-26.217c0.085,0.01 28.127,0.349 57.991,26.217Zm160.981,712.632c-7.886,-62.014 -24.151,-103.275 -44.881,-130.963c-71.527,-18.485 -214.848,-21.072 -474.555,87.434l57.959,306.128c203.379,-35.289 372.023,-75.753 372.023,-75.753c0,-0 111.421,-13.973 89.454,-186.846Z"
         style="fill:#555;fill-rule:nonzero;"
         id="path24" /><path
         d="M4816.32,5812.06l-23.683,-126.526c342.469,-216.389 449.211,-236.633 493.379,-147.12c-0,-1.197 0.221,-2.36 0.18,-3.56c-8.837,-202.798 -428.863,17.841 -587.532,105.184c-56.616,31.163 -89.975,63.208 -109.798,91.611c46.852,108.655 227.454,80.411 227.454,80.411Z"
         style="fill-rule:nonzero;"
         id="path26" /><path
         d="M6058.44,9694.54c-0,0 -122.08,0 -312.487,-24.227c-190.418,-24.214 -230.066,-164.683 -230.066,-164.683c-150.749,72.672 -145.889,130.744 -145.889,145.235c-0,0.678 0.587,3.305 1.173,5.922c68.724,60.509 261.028,89.513 467.295,89.513c272.818,-0 219.974,-51.76 219.974,-51.76Z"
         style="fill-rule:nonzero;"
         id="path28" /><path
         d="M5450.82,7303.37c20.74,27.691 36.995,68.953 44.891,130.963c3.826,30.278 3.431,55.414 0.395,76.75c17.459,-4.014 27.316,-6.376 27.316,-6.376c-0,-0 111.431,-13.963 89.464,-186.846c-7.886,-62.014 -24.151,-103.275 -44.881,-130.964c-71.527,-18.488 -214.848,-21.071 -474.555,87.435l12.96,68.499c178.45,-57.967 286.024,-54.556 344.41,-39.461Zm-0.054,-0.085c-9.24,-12.343 -19.366,-21.95 -30.12,-29.428c10.754,7.448 20.88,17.085 30.12,29.428Zm-47.087,-39.353c-16.341,-7.851 -33.51,-11.973 -50.552,-13.932c17.042,1.983 34.211,6.027 50.552,13.932Zm117.175,-116.465c-16.341,-7.912 -33.51,-11.95 -50.552,-13.929c17.053,1.949 34.211,6.081 50.552,13.929Zm47.086,39.356c-9.239,-12.343 -19.365,-21.983 -30.119,-29.431c10.754,7.482 20.88,17.088 30.119,29.431Zm99.815,864.349c-0.17,0.02 -0.371,0.085 -0.542,0.115c-0.46,0.339 -0.951,0.763 -1.408,1.102c0.661,-0.485 1.299,-0.739 1.95,-1.217Zm-67.68,-43.604c3.029,20.787 3.421,38.933 2.323,55.255c25.774,-4.034 47.366,-8.051 64.825,-11.546c31.098,-22.892 63.329,-68.635 50.027,-160.171c-23.799,-163.781 -80.211,-172.364 -169.187,-172.364c-49.208,0 -123.078,15.299 -273.807,42.821c-30.61,5.569 -59.133,9.807 -86.053,13.336l17.831,94.153c118.263,-21.844 181.315,-33.834 224.865,-33.834c88.952,-0.011 145.367,8.569 169.176,172.35Zm0,393.308c54.921,0 102.533,47.089 115.344,199.951c0.095,0.878 -0.055,1.535 -0,2.393c31.463,-3.41 61.104,-6.875 85.541,-9.607c20.945,-22.352 36.132,-55.763 31.644,-109.238c-12.821,-152.872 -60.429,-199.951 -115.354,-199.951l-190.738,0c-78.188,0 -164.477,6.197 -239.306,13.455l20.089,106.102c34.471,-1.82 69.003,-3.091 102.042,-3.091l190.738,-0.014Zm227.041,747.708c0.372,2.586 0,4.406 0.246,6.874c31.674,-0.305 60.794,-1.047 84.061,-1.959c-25.262,23.305 -55.989,28.719 -63.311,29.715c8.752,-0.793 115.524,-13.166 96.179,-151.103c-20.143,-143.76 -58.417,-191.167 -217.798,-191.167c-149.194,4.237 -256.648,5.119 -335.638,4.258l21.998,116.272c55.934,-0.624 120.78,-1.905 196.451,-4.068c159.385,0.013 197.659,47.417 217.812,191.178Zm-24.727,-555.15c-0.426,0.061 -0.968,0.115 -1.429,0.179c-1.695,1.79 -3.121,4.099 -4.891,5.739c2.122,-1.99 4.315,-3.729 6.32,-5.918Zm77.933,785.704l-5.437,-0.119l0.853,0c-3.452,-0.115 -6.139,-0.18 -9.379,-0.22c0.545,-0 1.142,-0 1.654,0.051l-353.8,-8.929c0,-0 -9.294,0.912 -23.854,0.976l22.425,118.401l238.05,6.027c-0.521,-0.064 -1.108,-0.064 -1.661,-0.064c3.241,0.064 5.935,0.115 9.39,0.223l-0.853,0l5.437,0.116c133.907,3.359 172.652,106.58 181.454,194.038c71.719,4.712 113.84,4.882 113.84,4.882c-0,-0 55.327,-309.525 -178.119,-315.382Zm-428.417,-2773.9c-29.874,-25.902 -57.916,-26.217 -57.991,-26.217c0.085,0.01 28.127,0.349 57.991,26.217Zm-140.122,-581.445c17.705,5.891 40.225,21.122 59.59,49.027c-19.399,-27.956 -41.79,-43.339 -59.59,-49.027Zm-117.175,116.462c17.787,5.688 40.191,21.071 59.59,49.027c23.203,33.411 41.951,84.821 41.951,162.269c-0,25.773 -5.041,48.231 -12.909,68.272c55.327,-26.59 130.084,-81.547 130.084,-184.737c-0,-77.458 -18.738,-128.865 -41.951,-162.266c-29.576,6.197 -330.167,76.492 -473.201,170.127l9.955,52.543c146.882,-60.255 323.742,-101.506 346.082,-106.198c-19.376,-27.902 -41.9,-43.146 -59.601,-49.037Zm140.176,581.509c26.549,23.095 54.526,66.316 65.706,148.435c4.989,36.621 3.731,66.367 -1.023,91.048c17.619,-4.322 28.608,-6.939 28.608,-6.939c-0,0 113.413,-25.868 89.603,-200.574c-11.19,-82.119 -39.171,-125.34 -65.719,-148.432c0.031,0.624 0.031,1.027 0.031,1.027c-0,0 -330.338,51.919 -452.278,173.107l7.067,37.359c144.054,-65.031 328.026,-94.004 328.026,-94.004c-0,0 0.01,-0.39 -0.021,-1.027Zm-58.045,-26.271c0.085,-0 28.127,0.318 57.991,26.23c-29.864,-25.891 -57.906,-26.23 -57.991,-26.23Zm-83.144,-951.757c6.822,41.031 -0.17,76.296 -14.389,106.601c62.8,-35.603 150.824,-107.109 131.574,-223.073c-29.297,-176.516 -71.407,-218.371 -518.157,58.231l7.835,41.485c329.349,-190.723 366.886,-141.506 393.137,16.756Z"
         style="fill-opacity:0.2;fill-rule:nonzero;"
         id="path30" /><path
         d="M6185.04,3582.52c-17.063,6.749 -27.244,11.187 -27.244,11.187l-289.26,196.452c-0,-0 202.822,-40.783 423.628,-50.668l-107.124,-156.971Z"
         style="fill-opacity:0.2;fill-rule:nonzero;"
         id="path32" /><path
         d="M9489.34,8837.11l64.652,353.382c23.117,-7.301 45.661,-14.471 67.861,-21.58l-64.26,-351.792c-22.476,6.62 -45.2,13.305 -68.253,19.99Zm-38.168,-603.005c-22.425,5.797 -45.658,11.665 -68.945,17.543l64.191,350.681c23.001,-6.377 45.661,-12.797 68.437,-19.194l-63.683,-349.03Zm-110.023,-602.557c0.457,-0.084 0.863,-0.2 1.259,-0.305c-23.342,5.339 -46.811,10.655 -70.719,16.038l65.163,356.314c23.056,-5.773 46.057,-11.515 69.055,-17.264l-64.758,-354.783Zm242.825,567.442c-1.545,0.424 -3.079,0.858 -4.679,1.251c1.545,-0.404 3.196,-0.827 4.679,-1.221l0,-0.03Z"
         style="fill-rule:nonzero;"
         id="path34" /><path
         d="M8986.86,5583.79c-17.459,-117.628 -35.992,-240.903 -54.253,-359.843c-26.548,2.532 -53.321,5.169 -80.391,7.932c19.747,118.52 39.88,241.612 58.598,360.003c30.429,-3.326 59.962,-6.397 89.313,-9.417c-4.57,0.468 -8.697,0.837 -13.267,1.325Z"
         style="fill-rule:nonzero;"
         id="path36" /><path
         d="M9077.31,6195.47c-0.852,-1.345 -1.483,-2.227 -1.483,-2.227c-0,0 -21.859,-152.859 -52.875,-364.216c-24.491,2.986 -49.495,6.176 -74.436,9.298c25.173,170.924 42.567,308.287 44.061,368.512c37.527,-5.065 73.755,-9.906 109.566,-14.651c-8.462,1.122 -16.255,2.139 -24.833,3.284Z"
         style="fill-rule:nonzero;"
         id="path38" /><path
         d="M8894.16,4976.29c-25.805,-162.215 -48.124,-294.409 -62.073,-360.328c-27.872,3.101 -55.733,6.207 -83.489,9.491c11.671,66.452 34.437,197.226 61.797,357.681c30.44,-2.617 60.187,-5.01 89.488,-7.254c-1.941,0.156 -3.776,0.264 -5.723,0.41Z"
         style="fill-rule:nonzero;"
         id="path40" /><path
         d="M10011.3,6614.22l5.095,28.091c-15.283,15.16 -269.492,48.136 -269.492,48.136l-0.116,0.309c34.437,15.563 57.96,20.529 58.13,20.563c259.708,-50.648 400,-81.326 400,-81.326c-0,-35.479 -193.617,-15.773 -193.617,-15.773Zm-3983.32,-452.675c-43.891,-19.722 -75.811,-61.926 -81.193,-141.716c-12.469,-184.483 179.037,-215.416 179.037,-215.416c-0,0 864.204,-272.978 1900.51,-458.593c679.97,-121.78 1345.75,-162.099 1723.21,-175.415l10.178,55.828c107.744,-24.377 159.586,-70.265 159.586,-70.265l-171.885,2.274c-330.082,7.651 -1089.62,40.319 -1867.78,179.707c-1036.31,185.615 -1900.52,458.593 -1900.52,458.593c-0,0 -191.506,30.933 -179.023,215.415c10.573,156.442 122.953,168.446 227.88,149.588Zm122.335,605.228c-40.276,-21.715 -68.744,-67.183 -83.079,-150.075c-36.623,-211.751 183.095,-226.304 183.095,-226.304c0,0 888.007,-249.314 1924.32,-434.929c663.947,-118.953 1304.65,-180.364 1679.32,-209.083l5.658,30.913c115.865,-25.475 184.183,-60.814 184.183,-60.814l-195.117,11.756c-336.607,22.925 -1063.55,83.709 -1820.76,219.347c-1036.3,185.615 -1924.32,434.939 -1924.32,434.939c0,-0 -219.704,14.556 -183.095,226.303c28.073,162.249 109.801,182.12 229.79,157.947Zm3500.38,580.205c425.739,-95.486 653.118,-156.473 653.118,-156.473c-36.62,-36.4 -192.358,-23.603 -192.358,-23.603l7.547,41.793l-468.884,115.984c0.052,13.794 0.577,22.299 0.577,22.299Zm-158.669,-960.143l136.807,-26.112c123.87,-17.407 234.585,-32.353 328.366,-44.76c98.983,-13.186 185.497,-49.926 185.497,-49.926c-0,0 -262.396,30.882 -660.571,86.804c2.92,11.95 6.467,22.817 9.901,33.994Zm-3591.1,-806.257c-31.207,-23.773 -59.706,-70.658 -59.706,-163.212c0,-185.54 93.321,-212.947 333.026,-274.08c239.711,-61.132 1419.98,-394.355 2705.31,-532.651c0,-0 370.88,-33.255 647.75,-28.041c-266.126,-27.204 -794.46,20.159 -794.46,20.159c-1285.33,138.307 -2465.6,471.529 -2705.3,532.662c-239.711,61.133 -333.035,88.54 -333.035,274.08c-0,185.53 114.545,187.639 135.742,187.639c10.522,-0.01 41.814,-8.251 70.674,-16.556Zm4677.86,3228.23c-25.177,-27.522 -117.519,-24.217 -173.313,-19.217l1.599,8.814c195.619,29.122 -180.124,191.018 -1211.92,502.844c20.208,-4.674 1428.71,-331.782 1383.63,-492.441Zm-4073.94,341.495c9.976,2.766 20.358,4.928 31.668,5.572c21.251,1.221 40.767,1.96 59.416,2.502c3.946,0.115 7.613,0.17 11.439,0.275c17.053,0.403 32.998,0.603 47.438,0.573l0.225,-0c63.052,-0.119 100.378,-3.35 100.378,-3.35c0,0 644.5,-21.844 2116.57,-371.24c1039.58,-246.751 1629.55,-491.349 1629.55,-491.349c-4.584,-39.207 -193.511,-41.336 -193.511,-41.336l3.721,20.295c41.77,0 92.864,8.539 92.864,8.539c-812.588,355.521 -2499.47,697.866 -3197.22,794.423c-572.43,79.228 -662.119,-30.729 -675.912,-72.817c-7.885,-40.116 -8.376,-81.581 -2.107,-116.557c18.854,-105.32 160.384,-115.15 160.384,-115.15l1332.92,-235.182c-829.215,146.612 -1479.62,227.3 -1479.62,227.3c0,0 -141.52,9.841 -160.384,115.161c-16.882,94.278 12.995,235.964 115.183,270.212c2.292,0.773 4.615,1.451 7.002,2.129Zm958.372,111.221c122.376,-17.577 255.413,-37.967 398.134,-61.76l-398.134,61.76Zm-506.115,405.382c-135.773,6.59 -325.969,48.17 -325.969,-173.791c0,-102.936 75.078,-120.109 75.078,-120.109l97.032,-9.088l659.974,-102.394c-494.017,70.997 -806.685,94.543 -806.685,94.543l-97.032,9.091c0,0 -89.719,18.211 -75.064,120.117c14.645,101.909 18.312,222.015 217.873,222.015c12.439,-0 192.956,2.891 287.866,-7.627c0.085,-0 0.106,-0.055 0.191,-0.055c415.201,-20.359 1188.04,-94.343 2083.01,-361.738c41.258,-12.342 81.247,-24.346 120.565,-36.231l0.276,-0.169c-1146.17,334.833 -2237.06,365.375 -2237.06,365.375l-0.055,0.061Zm-803.901,-2288.09c70.153,7.542 148.126,-13.614 148.126,-13.614c0,0 1203.87,-258.876 2244.74,-429.471c100.592,-16.505 197.048,-32.617 289.455,-48.339c240.775,-59.682 264.749,-354.155 266.229,-449.007l-0.065,-0.03l0.065,-0c0.276,-18.475 -0.225,-30.17 -0.225,-30.17c-290.039,43.495 -618.173,96.018 -954.606,156.303c-1036.3,185.615 -1933.47,425.83 -1933.47,425.83c-144.535,17.827 -177.693,54.312 -187.839,137.957c-7.77,63.804 14.525,220.71 91.424,243.805c7.886,2.36 20.795,3.038 35.416,3.072l0.747,3.664Zm206.959,-380.627c0,0 897.161,-240.215 1933.47,-425.83c250.223,-44.831 494.699,-85.045 723.391,-120.753c0.18,0.657 10.924,54.366 -12.234,126.282c-0,0.054 -0,0.105 -0.055,0.169c-14.195,31.96 -21.688,57.723 -33.881,77.428c-84.221,136.493 -49.433,185.615 -498.024,260.236c-448.581,74.607 -1392.02,260.51 -2147.95,425.976l-0.171,0c-73.413,-9.871 -152.399,-24.207 -152.399,-205.52c0.01,-84.269 43.335,-120.15 187.859,-137.988Zm23.748,1582.18c2.889,0.763 6.235,1.135 9.24,1.824c4.113,0.911 8.26,1.789 12.653,2.467c6.542,1.058 13.578,1.675 20.73,2.214c3.325,0.224 6.521,0.573 9.966,0.658c9.601,0.359 19.877,0.135 30.545,-0.489c1.525,-0.084 2.92,-0.084 4.465,-0.2c15.477,-1.061 31.698,-2.796 49.549,-6.027c-0,0 1223.07,-222.015 2268.54,-411.274c1037.86,-187.862 1613.06,-440.386 1613.06,-440.386c-28.83,-28.665 -194.299,-27.329 -194.299,-27.329l7.152,39.468c119.191,-0 88.284,-0 5.662,31.017c-82.622,31.027 -1221.01,320.799 -1633.6,410.566c-412.589,89.777 -1655.14,300.89 -1928.54,334.873c-182.614,22.692 -233.592,-40.241 -247.47,-84.617c-5.553,-34.641 -7.002,-71.346 -7.002,-106.92c-0,-122.604 175.336,-134.238 175.336,-134.238l1786.78,-360.911c-1036.31,185.615 -1933.48,353.04 -1933.48,353.04c-0,-0 -175.34,11.634 -175.34,134.238c0,109.069 11.16,230.29 126.077,261.487l-0,0.539l-0.021,-0Zm-109.224,-601.761c19.931,3.675 42.622,4.926 68.403,3.356l0.341,0c11.245,-0.708 23.427,-2.278 35.866,-4.098c2.438,-0.339 4.56,-0.403 7.033,-0.797c-0.137,-0.051 -0.246,-0.145 -0.393,-0.2c2.118,-0.339 4.229,-0.678 6.296,-0.973c-0.095,0.085 -0.201,0.18 -0.276,0.255c6.48,-1.102 12.439,-1.739 19.25,-3.16c-0,0 3.697,-0.654 9.208,-1.651c4.669,-0.857 10.924,-1.959 19.26,-3.474c21.794,-3.919 55.804,-10.065 100.507,-18.136c15.304,-2.756 31.78,-5.742 49.515,-8.952c11.47,-2.075 23.022,-4.184 35.471,-6.431c0.716,-0.136 1.439,-0.254 2.142,-0.4c89.382,-16.21 203.262,-36.939 334.615,-60.997c1.831,-0.339 3.666,-0.678 5.521,-0.997c456.361,-83.6 1122.86,-207.174 1725.12,-324.802c217.075,-42.404 413.676,-82.669 589.278,-119.852c-80.105,-224.568 -236.59,-298.358 -332.149,-322.755c-1.429,-0.403 -2.974,-0.827 -4.348,-1.166c-5.031,-1.251 -9.721,-2.278 -14.359,-3.241c-2.173,-0.457 -4.294,-0.912 -6.361,-1.315c-4.116,-0.793 -7.889,-1.505 -11.61,-2.098c-2.459,-0.39 -4.689,-0.729 -6.978,-1.078c-2.912,-0.434 -5.842,-0.892 -8.526,-1.197c-3.946,-0.508 -7.442,-0.881 -10.648,-1.166c-0.512,-0.054 -1.088,-0.119 -1.545,-0.17c-10.638,-0.942 -16.702,-0.942 -16.702,-0.942c-208.678,39.417 -429.079,80.18 -652.109,120.137c-1036.3,185.618 -1893.19,363.955 -1893.19,363.955c-0,-0 -175.742,10.698 -185.93,140.53c-7.036,89.936 -0.46,204.154 92.84,247.629c-0.095,0.318 -0.255,0.712 -0.351,1.027c3.039,1.42 6.876,2.193 10.106,3.444c3.004,1.166 6.204,2.193 9.41,3.22c7.152,2.329 14.474,4.522 22.544,6.082c0.863,0.19 1.886,0.244 2.749,0.413Zm9.41,-253.924c10.19,-129.831 185.922,-140.519 185.922,-140.519c0,-0 856.872,-178.347 1893.2,-363.966c175.254,-31.386 348.162,-63.231 515.694,-94.563l0,0.02c0,0 237.689,69.523 312.753,274.111c0,-0 -387.421,101.051 -1101.71,235.839c-704.803,132.987 -1536.47,289.748 -1614.26,293.9c-140.603,5.543 -176.339,-50.329 -184.971,-73.814c-9.731,-42.712 -9.881,-89.373 -6.62,-131.008Z"
         style="fill-rule:nonzero;"
         id="path42" /><path
         d="M9704.86,8165.68c-77.882,21.949 -162.325,44.811 -253.709,68.411l63.693,349.04c82.742,-23.295 163.87,-46.98 242.601,-71.008l-52.585,-346.443Zm87.939,579.486c-74.15,23.431 -152.71,47.512 -235.216,71.906l64.259,351.826c1.088,-0.339 2.227,-0.678 3.261,-1.027c34.788,-11.122 68.031,-21.899 100.527,-32.468c9.339,-3.041 18.428,-6.027 27.531,-9.027c28.148,-9.238 55.497,-18.285 81.875,-27.099c3.605,-1.217 7.442,-2.468 10.989,-3.675l-53.226,-350.436Zm-178.696,-1177.44c-85.647,20.532 -176.966,41.939 -272.975,63.804l64.768,354.769c89.487,-22.435 177.833,-44.787 261.713,-66.198l-53.506,-352.375Z"
         style="fill:#fff;fill-rule:nonzero;"
         id="path44" /><path
         d="M9196,5201.34c-83.997,6.376 -172.107,13.878 -263.371,22.607c18.257,118.94 36.79,242.205 54.249,359.843c94.805,-9.841 183.713,-18.095 266.454,-24.99c-19.174,-121.591 -38.796,-243.212 -57.332,-357.46Z"
         style="fill:#fff;fill-rule:nonzero;"
         id="path46" /><path
         d="M9290.68,5798.36c-85.541,9.173 -174.858,19.332 -267.658,30.678c30.952,211.358 52.81,364.22 52.81,364.22c0,-0 0.631,0.878 1.484,2.224c95.156,-12.682 184.074,-24.207 266.921,-34.696c-14.826,-106.187 -33.359,-230.954 -53.557,-362.426Z"
         style="fill:#fff;fill-rule:nonzero;"
         id="path48" /><path
         d="M9095.69,4594.9c-125.245,7.586 -216.158,15.722 -216.158,15.722c-15.849,1.695 -31.644,3.579 -47.428,5.339c13.96,65.919 36.268,198.103 62.073,360.328c93.386,-7.204 180.803,-12.519 262.276,-16.407c-35.47,-215.161 -60.763,-364.982 -60.763,-364.982Z"
         style="fill:#fff;fill-rule:nonzero;"
         id="path50" /><path
         d="M5811.66,5525.95c-0,-185.54 93.321,-212.944 333.022,-274.08c239.704,-61.133 1419.98,-394.355 2705.3,-532.651c0,-0 556.666,-49.852 814.658,-17.638l-5.371,-29.681c5.552,-16.55 9.324,-31.452 12.288,-45.648c-70.654,-101.337 -938.75,-23.516 -938.75,-23.516c-1285.33,138.306 -2465.6,471.529 -2705.3,532.662c-239.711,61.133 -333.036,88.54 -333.036,274.08c0,163.147 88.55,184.452 124.327,187.205c-4.4,-20.065 -7.138,-43.156 -7.138,-70.733Zm226.004,1199.33c-36.63,-211.747 183.088,-226.303 183.088,-226.303c0,-0 888.004,-249.314 1924.32,-434.939c694.625,-124.398 1362.28,-185.724 1727.9,-212.714l-22.319,-123.231c-335.464,22.763 -1063.61,83.506 -1822.77,219.483c-1036.3,185.615 -1924.32,434.939 -1924.32,434.939c-0,-0 -219.709,14.556 -183.096,226.303c19.26,111.357 63.789,155.595 128.591,164.663c-4.349,-14.597 -8.315,-30.285 -11.395,-48.201Zm-120.436,-596.869c-12.469,-184.479 179.023,-215.412 179.023,-215.412c0,0 864.208,-272.981 1900.52,-458.596c711.208,-127.374 1405.7,-165.54 1772.17,-177.002l-21.573,-119.133c-330.136,7.617 -1089.62,40.285 -1867.78,179.673c-1036.31,185.615 -1900.52,458.593 -1900.52,458.593c0,0 -191.505,30.933 -179.023,215.415c6.968,103.127 58.213,143.51 122.376,153.69c-2.407,-11.485 -4.283,-23.634 -5.201,-37.228Zm3733.39,1218.56c45.252,-10.16 87.823,-19.821 128.556,-29.153c23.854,-123.401 94.975,-285.531 301.02,-322.84l-24.556,-135.52c-25.975,5.285 -53.666,10.889 -84.617,17.14c-350.621,56.62 -320.403,470.278 -320.403,470.373Zm29.116,-694.168c-33.188,-47.713 -62.199,-107.764 -80.511,-183.486c145.899,-20.499 273.381,-37.584 376.487,-51.058l-23.298,-128.584c-114.883,14.671 -276.354,35.912 -470.377,63.18c38.69,159.652 124.296,249.788 197.699,299.948Zm682.433,1897.97c-301.253,111.516 -975.329,344.43 -1764.87,510.482c-1102.83,231.941 -1940.8,294.799 -1940.8,294.799l-97.031,9.091c-0,0 -89.72,18.207 -75.065,120.116c12.214,84.906 17.193,182.205 133.836,212.344c-8.625,-30.932 -12.108,-64.261 -16.65,-95.882c-14.656,-101.906 75.067,-120.106 75.067,-120.106l97.042,-9.098c0,-0 837.997,-62.906 1940.8,-294.802c719.212,-151.273 1341.68,-357.735 1674.74,-477.641l-27.07,-149.303Zm-4219.4,-1306.02c10.157,-83.655 43.305,-120.136 187.84,-137.967c-0,0 897.171,-240.212 1933.48,-425.83c288.653,-51.726 571.021,-97.669 828.672,-137.191c11.777,-76.74 8.748,-135.543 8.748,-135.608c-290.038,43.529 -618.173,96.052 -954.606,156.337c-1036.3,185.615 -1933.46,425.83 -1933.46,425.83c-144.535,17.828 -177.693,54.313 -187.84,137.957c-7.769,63.804 14.526,220.71 91.425,243.805c12.364,3.695 25.6,5.655 39.052,6.926c-13.537,-49.309 -17.118,-102.953 -13.302,-134.259Zm357.026,1749.67c18.868,-105.306 160.384,-115.161 160.384,-115.161c0,0 895.34,-111.058 1924.32,-309.365c859.228,-165.564 1409.36,-330.85 1702.84,-432.111l-26.889,-148.371c-262.628,95.648 -837.145,279.792 -1793.12,464.02c-1028.99,198.307 -1924.32,309.365 -1924.32,309.365c-0,0 -141.52,9.841 -160.384,115.161c-17.671,98.834 15.763,250.161 130.339,274.737c-18.267,-51.705 -21.636,-110.967 -13.175,-158.275Zm-245.264,-1161.15c10.188,-129.831 185.93,-140.519 185.93,-140.519c-0,-0 856.875,-178.341 1893.19,-363.966c223.043,-39.949 443.434,-80.722 652.108,-120.129c0,-0 110.023,-0.18 222.863,76.77c-137.331,-193.527 -340.037,-193.243 -340.037,-193.243c-208.679,39.418 -429.079,80.181 -652.109,120.14c-1036.3,185.615 -1893.19,363.952 -1893.19,363.952c-0,0 -175.742,10.699 -185.929,140.53c-7.835,99.831 0.573,230.121 126.318,259.867c-12.714,-45.923 -12.714,-97.818 -9.144,-143.402Zm120.446,601.53c0,-122.607 175.34,-134.238 175.34,-134.238c-0,0 897.161,-167.428 1933.48,-353.043c701.016,-125.574 1352.08,-285.799 1700.83,-376.529l-25.461,-140.499c-316.358,83.824 -1025.1,263.107 -1792.56,400.552c-1036.31,185.619 -1933.48,353.044 -1933.48,353.044c0,-0 -175.336,11.634 -175.336,134.238c-0,111.262 11.351,235.405 132.802,263.551c-13.185,-45.19 -15.617,-97.394 -15.617,-147.076Z"
         style="fill-opacity:0.2;fill-rule:nonzero;"
         id="path52" /><path
         d="M7141.83,11071.7c-305.42,-142.448 -497.041,-461.942 -611.297,-747.758c-114.746,-287.196 -151.22,-537.865 -151.571,-538.323c-0.627,-2.732 -178.822,-858.542 -380.423,-1855.46c-201.587,-996.733 -426.046,-2132.75 -517.57,-2688.58c-45.136,-274.229 -62.073,-500.129 -62.073,-684.815c-0,-281.324 39.331,-466.793 78.359,-581.421c37.165,-109.622 72.956,-152.385 75.705,-156.612c-19.567,12.055 -38.871,24.194 -57.67,36.502c-47.578,90.628 -126.568,301.064 -126.448,701.531c-0,186.486 17.018,413.861 62.414,689.51c183.17,1113.31 897.979,4544.24 897.979,4544.37c0.983,0.169 134.733,933.671 709.663,1270.39c26.753,3.983 54.529,7.447 82.932,10.678l0,-0.017Z"
         style="fill:#846f5d;fill-rule:nonzero;"
         id="path54" /><path
         d="M10235.8,8954.4c-160.032,65.17 -408.696,150.754 -750.044,257.554c43.997,587.737 22.595,1125.6 -121.878,1553.32c171.138,-77.902 263.65,-155.997 263.65,-155.997c390.57,-114.079 532.236,-332.396 532.236,-332.396c133.485,-57.502 229.207,-143.764 297.47,-243.287c-64.481,-312.938 -140.056,-680.937 -221.434,-1079.19Zm-337.459,-1664.2c-73.294,17.173 -155.51,36.112 -247.682,56.78c0,-0.095 -20.146,-286.792 175.827,-415.288c-15.231,-76.092 -30.334,-151.865 -45.385,-227.269c-63.969,-21.695 -238.698,-102.564 -299.011,-351.569c81.523,-11.465 156.993,-21.814 226.058,-31.112c-11.736,-67.248 -22.936,-134.357 -33.584,-201.263c-175.711,20.56 -401.494,48.516 -672.872,85.136c12.247,69.97 24.887,140.659 37.827,211.921c20.709,-3.126 41.653,-6.346 62.018,-9.387c0,0.085 5.321,101.231 -24.768,211.581c39.874,214.026 81.64,432.343 122.898,652.514c31.412,41.431 59.781,92.363 82.165,155.086c-16.606,3.498 -34.276,7.203 -51.213,10.752c12.929,69.876 25.688,139.812 38.338,209.822c260.506,-58.539 490.35,-114.672 669.142,-160.075c-13.271,-65.869 -26.542,-131.757 -39.758,-197.629Zm-461.677,-2713.87c-96.991,-477.895 -234.926,-888.152 -489.041,-1177.85c-100.589,-17.858 -172.055,-12.583 -172.055,-12.583c-229.435,-145.869 -991.901,-125.71 -1288.11,-116.103c390.76,219.653 903.675,626.954 1193.31,1338.8c17.339,-1.928 34.679,-3.973 52.073,-5.857c-0,-0 424.143,-38.031 703.824,-26.411Zm617.139,3483.96c-12.823,-63.37 -25.75,-127.065 -38.679,-190.934c-171.479,55.14 -397.889,120.733 -675.683,186.103c10.985,66.475 21.572,132.818 31.814,198.985c289.411,-72.787 515.077,-139.662 682.548,-194.154Zm-1202.01,-2850.4c266.178,-24.078 502.427,-37.468 684.544,-44.801c-10.583,-72.427 -21.456,-143.855 -32.722,-214.313c-178.695,0.552 -415.347,8.305 -701.02,33.071c18.527,72.957 35.409,147.822 49.198,226.043Zm599.684,3638.16c286.246,-82.119 531.82,-162.978 716.239,-227.419c-12.94,-63.346 -25.921,-127.245 -39.021,-191.622c-176.008,59.343 -411.957,133.666 -702.105,213.626c8.919,68.909 17.224,137.374 24.887,205.415Zm-514.555,-3034.2c262.181,-31.136 496.595,-53.2 681.406,-68.329c-10.072,-70.486 -19.853,-140.561 -29.533,-210.022c-177.778,9.64 -407.844,26.79 -684.253,57.078c9.901,72.445 20.89,146.428 32.38,221.273Z"
         style="fill:#fff;fill-opacity:0.4;fill-rule:nonzero;"
         id="path56" /><path
         d="M8647.78,10679.1c149.961,-441.878 160.66,-849.22 -165.755,-818.796c-326.427,30.424 -270.356,324.429 -336.669,659.049c-66.316,334.623 -887.58,446.139 -887.58,446.139c-86.705,157.12 1249.76,126.811 1390,-286.392Zm568.73,-190.171c163.242,-512.048 114.787,-783.247 -122.376,-755.385c-237.167,27.861 -122.441,329.544 -178.577,755.385c-56.138,425.84 -678.414,527.282 -678.414,527.282c-0,-0 816.138,-15.234 979.367,-527.282Zm408.069,-897.336c-181.083,83.655 -122.376,217.978 -173.419,679.358c-51.03,461.38 -453.963,583.025 -453.963,583.025c132.632,-0 515.183,-126.771 688.602,-461.329c173.42,-334.559 119.883,-884.708 -61.22,-801.054Zm290.785,223.094c30.61,623.618 -255.069,775.633 -255.069,775.633c397.827,-147.069 459.099,-425.831 530.51,-795.928c71.408,-370.098 -306.051,-603.32 -275.441,20.295Zm456.139,-521.116c-127.247,44.62 -87.94,375.714 -72.957,613.808c14.986,238.117 -123.078,358.508 -123.078,358.508c464.716,-285.087 323.281,-1016.96 196.035,-972.316Z"
         style="fill-rule:nonzero;"
         id="path58" /><path
         d="M9011.01,9764.1c-123.072,90.021 -47.598,362.027 -95.432,724.846c-12.93,98.042 -56.019,178.68 -114.426,245.046c130.442,-53.455 353.997,-174.418 387.636,-386.827c45.317,-286.103 100.122,-601.73 -177.778,-583.065Zm-512.71,129.313c-175.827,-15.648 -261.935,135.065 -272.978,155.943c-43.602,121.801 -44.233,289.792 -79.935,470.014c-4.233,21.495 -11.736,42.024 -21.797,61.696l0.054,0.064c0,-0 408.411,63.011 456.361,-113.455c47.949,-176.462 107.103,-557.482 -81.705,-574.262Zm1840.66,-577.896c-86.745,87.862 -53.898,377.26 -40.395,591.879c1.258,19.631 1.088,38.166 0.406,56.133c38.389,-59.14 98.812,-179.069 98.812,-347.406c-0.01,-182.947 1.419,-268.531 -58.823,-300.606Zm-347.306,132.499c-50.061,42.482 -86.629,155.195 -76.271,366.688c11.961,243.107 -24.373,413.827 -72.888,532.526c68.147,-24.746 186.986,-88.431 203.002,-235.266c20.648,-189.609 128.154,-634.093 -53.843,-663.948Zm-382.203,151.561c-161.82,84.333 -108.775,224.059 -158.273,671.391c-15.839,143.425 -65.791,253.921 -126.96,338.267c90.351,-38.678 286.887,-137.682 304.227,-273.256c19.505,-152.828 142.352,-658.161 -18.994,-736.402Z"
         style="fill:#555;fill-rule:nonzero;"
         id="path60" /><path
         d="M9011.01,9764.1c-123.072,90.021 -47.598,362.027 -95.432,724.846c-12.93,98.042 -56.019,178.68 -114.426,245.046c46.906,-19.217 105.845,-47.309 163.685,-85.129c3.37,-14.333 7.333,-28.316 9.328,-43.452c47.834,-362.823 -27.636,-634.825 95.433,-724.849c67.059,-4.492 114.436,10.807 147.509,40.149c-19.335,-100.38 -76.047,-165.319 -206.097,-156.611Zm-512.71,129.313c-175.827,-15.648 -261.935,135.065 -272.978,155.943c-43.602,121.801 -44.233,289.792 -79.935,470.014c-4.233,21.495 -11.736,42.024 -21.797,61.696l0.054,0.064c0,-0 36.504,5.519 88.516,8.698c27.636,-162.598 31.869,-312.673 71.749,-424.01c11.044,-20.878 97.151,-171.567 272.978,-155.943c25.174,2.227 45.713,11.315 62.65,25.203c-14.816,-78.254 -50.692,-135.404 -121.237,-141.665Zm1111.15,-293.836c-161.82,84.333 -108.775,224.059 -158.273,671.391c-15.839,143.425 -65.791,253.921 -126.96,338.267c39.597,-16.959 99.624,-45.498 155.971,-83.655c13.059,-42.597 24.034,-87.627 29.577,-138.136c49.508,-447.336 -3.537,-587.052 158.276,-671.395c5.723,2.796 10.293,7.224 15.283,11.037c-10.778,-61.207 -33.373,-107.838 -73.874,-127.509Zm784.314,-162.873c-5.597,-64.376 -19.505,-102.363 -54.815,-121.177c-86.746,87.862 -53.898,377.261 -40.395,591.879c1.258,19.631 1.087,38.17 0.405,56.136c14.304,-22.068 31.699,-52.607 47.889,-90.933c-11.607,-178.465 -16.296,-364.135 46.916,-435.905Zm-402.111,11.312c-50.061,42.482 -86.629,155.195 -76.271,366.688c11.961,243.107 -24.373,413.827 -72.888,532.526c31.121,-11.312 72.717,-31.397 110.363,-63.19c18.472,-96.218 28.032,-212.066 21.102,-352.871c-10.358,-211.496 26.21,-324.199 76.271,-366.687c15.283,2.498 27.807,8.813 39.202,16.779c-11.385,-72.004 -39.819,-123.753 -97.779,-133.245Z"
         style="fill-opacity:0.2;fill-rule:nonzero;"
         id="path62" /><path
         d="M5868.53,3790.15l289.26,-196.453c0,0 385.676,-172.543 776.17,-105.434c390.515,67.099 525.49,138.95 626.734,378.542c101.24,239.588 216.915,440.837 -24.12,546.241c-241.035,105.404 -395.344,-110.181 -448.349,-244.354c-53.021,-134.188 -212.095,-368.966 -501.37,-416.888c-289.26,-47.896 -718.325,38.346 -718.325,38.346Z"
         style="fill-rule:nonzero;"
         id="path64" /><path
         d="M6480.78,3459.51c0,0 520.65,-57.471 756.9,-4.779c236.249,52.692 462.83,172.479 602.644,598.947c139.805,426.454 482.135,244.418 429.1,57.519c-53.059,-186.897 -115.76,-891.244 -1239.05,-766.677l-549.599,114.99Z"
         style="fill:#555;fill-rule:nonzero;"
         id="path66" /><path
         d="M7268.55,3319.33l108.161,13.136c-0,-0 410.125,-48.475 629.854,101.974c219.705,150.435 385.696,456.189 439.423,650.289c53.727,194.1 400.406,232.904 346.678,-9.725c0,-0 -99.555,-775.61 -1047.49,-811.254c-184.268,2.214 -328.772,9.183 -366.992,9.183c-111.431,0 -103.992,45.031 -103.992,45.031c-1.982,0.18 -3.868,0.434 -5.839,0.603l0.201,0.763Z"
         style="fill:#555;fill-rule:nonzero;"
         id="path68" /><path
         d="M8232.33,3293.19c-0,-0 561.983,11.854 755.716,323.277c193.733,311.409 284.53,567.916 112.431,587.143c-234.36,26.156 -265.482,-739.273 -868.147,-910.42Z"
         style="fill:#555;fill-rule:nonzero;"
         id="path70" /><path
         d="M8808.69,3404.92c-0,0 248.783,87.98 365.958,344.677c117.185,256.697 186.53,468.285 284.595,468.285c98.076,0 52.64,-211.557 -47.823,-392.216c-100.474,-180.68 -275.11,-420.746 -602.73,-420.746Z"
         style="fill:#555;fill-rule:nonzero;"
         id="path72" /><path
         d="M7271.44,3751.81c-86.78,-23.973 -265.452,56.651 -407.524,121.757c-0.034,-0 -0.065,0.034 -0.085,0.064c118.72,91.78 191.761,212.429 224.404,295.067c33.117,83.844 105.828,199.523 214.541,248.741l0.021,-0c-0,-0 218.364,18.559 262.743,-143.337c44.362,-161.91 -207.331,-498.309 -294.1,-522.292Zm-33.765,-297.08c236.249,52.692 462.83,172.479 602.644,598.947c72.06,219.852 197.88,277.744 295.656,256.876c0.225,-0.18 93.324,-92.068 -0,-305.904c-93.417,-214.049 -189.149,-549.919 -898.3,-549.919Zm693.302,-61.611c-0,-0 0.29,0.508 0.29,0.603c26.653,11.706 52.182,24.906 75.289,40.723c219.704,150.435 385.695,456.19 439.423,650.289c27.295,98.615 130.169,156.846 217.777,158.751c59.048,-110.869 -4.007,-300.752 -137.212,-539.059c-167.406,-299.537 -595.567,-311.307 -595.567,-311.307Zm666.979,127.777c258.329,277.321 324.826,676.341 486.97,682.856c44.573,-151.018 -96.82,-364.389 -199.691,-511.224c-93.025,-132.848 -220.445,-164.438 -287.279,-171.632Zm555.288,186.473c7.503,13.593 14.71,27.566 21.401,42.227c82.803,181.324 141.67,339.725 203.689,417.353c119.242,-77.638 -92.066,-323.298 -225.09,-459.58Z"
         style="fill-rule:nonzero;"
         id="path74" /><path
         d="M9153.23,3707.37c1.599,2.905 2.974,6.061 4.583,8.993c118.669,131.116 247.983,305.924 175.487,380.366c15.047,27.583 29.982,51.387 45.03,70.231c119.231,-77.648 -92.076,-323.308 -225.1,-459.59Zm-1786.74,-248.572c-40.566,-2.637 -83.39,-4.067 -128.826,-4.067c118.137,26.325 233.852,69.471 337.501,159.323c-64.536,-71.346 -134.951,-120.476 -208.675,-155.256Zm-49.454,321.084c102.383,116.272 221.604,320.372 189.896,435.99c-44.369,161.896 -262.733,143.326 -262.733,143.326l-0.034,0c-24.703,-11.206 -47.332,-26.156 -68.274,-43.071c34.468,41.427 76.63,78.57 126.875,101.313l0.021,-0c-0,-0 218.364,18.559 262.743,-143.337c38.093,-139.018 -141.848,-406.129 -248.494,-494.221Zm689.52,-345.446c27.636,18.898 54.355,40.285 80.159,63.57c-34.948,-37.502 -72.039,-71.73 -111.059,-101.337c-27.797,-3.007 -44.679,-3.549 -44.679,-3.549c-0,-0 0.29,0.508 0.29,0.603c26.643,11.706 52.172,24.895 75.289,40.713Zm-1142.65,439.132c-0.034,-0 -0.065,0.034 -0.085,0.064c11.807,9.122 22.827,18.739 33.751,28.38c-9.27,-10.295 -18.99,-20.424 -29.147,-30.488c-1.463,0.657 -3.059,1.366 -4.519,2.044Zm1939.73,-267.904c7.739,9.271 15.624,18.115 23.001,28.634c102.871,146.825 244.261,360.203 199.681,511.221c-19.164,-0.773 -36.899,-7.393 -53.836,-18.292c34.396,45.984 70.142,74.808 112.434,76.526c44.573,-151.018 -96.821,-364.389 -199.692,-511.224c-25.282,-36.082 -53.14,-64.204 -81.588,-86.865Zm-893.154,37.648c87.025,99.685 127.247,212.323 166.895,303.107c93.325,213.825 0.225,305.724 0,305.894c-48.461,10.359 -103.788,1.247 -156.087,-37.248c67.114,86.981 147.509,109.811 214.675,95.489c0.225,-0.18 93.324,-92.068 -0,-305.904c-47.589,-109.014 -95.934,-249.588 -225.483,-361.338Zm498.481,-79.214c21.678,24.83 41.941,51.61 58.984,82.085c133.204,238.307 196.26,428.203 137.212,539.062c-43.772,-0.933 -91.384,-15.973 -131.435,-43.072c43.601,63.211 121.247,99.811 190.022,101.313c59.048,-110.869 -4.007,-300.752 -137.212,-539.059c-31.517,-56.369 -72.25,-102.512 -117.571,-140.329Z"
         style="fill-opacity:0.2;fill-rule:nonzero;"
         id="path76" /><path
         d="M4710.56,4834.93c10.212,37.936 25.887,73.828 48.035,106.685c169.307,251.189 632.669,237.694 1035.02,-30.2c402.312,-267.853 591.284,-688.595 421.978,-939.783c-117.059,-173.73 -374.857,-220.649 -655.786,-144.557c-475.248,296.917 -721.941,672.198 -849.242,1007.86Z"
         style="fill:#fff;fill-opacity:0.4;fill-rule:nonzero;"
         id="path78" /><g
         id="g84"><g
           id="g82"><path
             d="M9331.43,6772.01l-0.341,-2.736c-0.46,-0.878 -1.098,-1.366 -1.78,-1.302l-1.034,0c-0.395,0 -0.46,0.224 -0.225,0.678c-11.842,8.475 -24.365,16.146 -37.527,22.861c-11.211,5.773 -23.393,11.177 -36.568,16.346c-13.152,5.146 -26.081,7.882 -38.796,8.221l-0.512,-0c-0.747,-0 -2.974,-0 -6.811,-0.119c-3.837,-0.146 -8.236,-0.908 -13.161,-2.447c-4.915,-1.387 -9.956,-3.644 -14.986,-6.706c-5.041,-3.05 -9.103,-7.288 -12.013,-12.657c-4.921,-8.929 -6.415,-18.929 -4.529,-29.851c1.951,-10.977 6.641,-21.855 14.369,-32.787c7.674,-10.892 17.735,-21.515 30.215,-31.875c12.469,-10.349 26.486,-19.736 42.226,-28.115c15.679,-8.39 32.787,-15.075 51.32,-20.16c18.707,-5.064 37.817,-7.851 57.673,-8.39c5.594,-0.149 11.552,-0.084 17.797,0.2c6.234,0.288 13.325,0.797 21.275,1.485c7.896,0.709 17.104,1.705 27.466,2.956c10.423,1.336 22.595,2.922 36.504,4.831c5.842,0.793 11.616,1.515 17.459,2.244c4.976,0.796 10.358,1.315 15.9,1.654c5.607,0.305 10.426,0.339 14.59,0.254c0.512,-0.488 1.088,-0.678 1.835,-0.742l3.721,-0.085c3.141,-0.064 5.147,0.539 5.894,1.909c0.682,1.311 0.863,3.122 0.286,5.4c-3.144,11.973 -10.358,19.884 -21.517,23.773c-11.044,3.949 -22.265,6.057 -33.585,6.396c-10.242,0.244 -18.939,-0.145 -26.026,-1.366c-4.348,-0.742 -8.069,-1.312 -11.224,-1.705c-19.11,-3.559 -35.641,-5.624 -49.314,-6.197c-13.728,-0.488 -26.838,-0.603 -39.256,-0.254c-29.639,0.793 -54.526,4.641 -74.618,11.516c-20.027,6.939 -35.746,15.04 -47.022,24.227c-11.384,9.152 -18.717,18.42 -22.203,27.858c-3.431,9.451 -3.731,16.844 -0.798,22.183c1.49,2.702 3.547,4.841 6.235,6.376c2.568,1.515 5.146,2.671 7.834,3.499c3.144,1.281 6.35,1.854 9.614,1.82c1.948,0.373 3.994,0.678 6.054,0.881c2.057,0.146 4.349,0.18 6.821,0.146c11.266,-0.305 23.288,-2.498 36.044,-6.502c12.653,-3.962 24.259,-8.603 34.672,-13.912c12.193,-5.793 24.427,-12.244 36.674,-19.352c6.511,-3.868 12.418,-6.99 17.51,-9.417c5.096,-2.394 9.444,-4.292 12.93,-5.773l10.532,-4.441l1.596,-0c1.429,-0.051 2.517,0.607 3.209,1.973c0.512,0.878 0.853,2.468 0.969,4.712c-5.317,9.271 -10.464,20.095 -15.624,32.553c-4.178,10.552 -8.291,23.803 -12.299,39.874c-3.942,16.007 -6.916,34.801 -8.802,56.218c5.723,-0.634 11.497,-0.973 17.394,-1.163c5.774,-0.149 12.755,-1.03 20.876,-2.651l1.6,-0.02c1.098,-0 1.835,0.424 2.356,1.302c2.002,4.979 2.173,8.932 0.577,11.918c-1.6,3.01 -4.008,5.2 -7.442,6.705c-3.261,1.431 -6.873,2.448 -10.699,2.987c-3.772,0.607 -6.982,0.881 -9.444,0.976l-16.937,0.444c0.054,17.777 -0,34.811 -0.287,51.187c-0.116,16.41 0.641,32.502 2.238,48.36c1.715,15.898 4.809,31.969 9.444,48.166c4.519,16.292 11.435,32.926 20.763,49.97c6.416,11.631 14.25,21.916 23.574,30.699c9.325,8.878 20.549,13.135 33.585,12.796c13.451,-0.393 24.887,-4.257 34.392,-11.546c9.444,-7.298 17.108,-16.715 23.002,-28.295c5.893,-11.515 10.361,-24.332 13.321,-38.559c3.039,-14.183 4.584,-28.434 4.649,-42.733c0.051,-14.302 -1.204,-27.99 -3.772,-40.858c-2.572,-12.871 -6.3,-23.793 -11.16,-32.725c-3.485,-6.312 -6.459,-10.55 -9.147,-12.743c-2.629,-2.183 -6.296,-3.21 -10.88,-3.125c-8.751,0.254 -16.541,3.613 -22.885,10.213c-6.456,6.472 -11.893,14.638 -16.136,24.278c-4.178,9.672 -7.438,20.096 -10.006,31.282c-2.452,11.282 -4.284,21.634 -5.553,31.187c-1.204,9.61 -2.056,17.373 -2.582,23.315c-0.511,5.912 -0.914,8.634 -1.193,8.21c0.119,2.736 -0.403,4.102 -1.436,4.153c-0.737,-0 -1.77,-0.993 -2.964,-2.976c-1.323,-2.044 -2.237,-3.475 -2.698,-4.387c-3.325,-11.281 -5.658,-26.217 -7.032,-44.861c-1.375,-18.624 -0.461,-36.929 2.749,-54.99c3.26,-18.051 9.263,-33.665 18.192,-46.885c8.987,-13.221 21.923,-20.085 38.86,-20.509c5.317,-0.149 10.413,0.634 15.222,2.308c3.025,0.817 5.955,2.587 8.867,5.255c2.514,2.193 5.498,5.169 8.643,8.993c3.144,3.753 6.35,8.783 9.836,15.064c8.591,15.668 14.996,32.902 19.123,51.696c4.114,18.749 6.17,37.681 6.054,56.76c-0.17,19.108 -2.507,37.563 -7.152,55.464c-4.584,17.862 -11.095,33.804 -19.451,47.916c-8.41,14.098 -18.928,25.414 -31.462,33.973c-12.599,8.536 -27.244,13.082 -43.776,13.505c-12.353,0.339 -23.628,-2.129 -33.816,-7.308c-10.245,-5.17 -19.164,-11.431 -26.944,-18.739c-7.728,-7.289 -14.464,-15.045 -20.027,-23.35c-5.552,-8.24 -9.839,-15.064 -12.813,-20.444c-9.55,-17.448 -16.999,-35.434 -22.2,-53.973c-5.317,-18.455 -9.048,-36.855 -11.276,-54.936c-2.176,-18.116 -3.26,-35.743 -2.974,-52.797c0.181,-17.088 1.099,-32.892 2.749,-47.482c-4.635,0.085 -8.185,0.203 -10.648,0.278c-2.397,0.061 -4.338,0.085 -5.774,0.146c-1.429,0.054 -2.411,0.203 -3.028,0.457c-0.522,0.221 -1.204,0.37 -1.897,0.37c-3.028,-0.339 -5.095,-1.461 -6.054,-3.271c-0.225,-0.438 -0.289,-1.465 -0.119,-3.075c0.225,-1.556 0.802,-3.41 1.835,-5.464c1.033,-2.099 2.749,-4.038 5.147,-5.943c2.346,-1.918 5.552,-3.135 9.549,-3.678l3.721,-0.084c1.375,-0.062 2.974,-0 4.69,0.138c1.651,0.211 3.601,0.285 5.777,0.224c1.716,-13.274 3.943,-25.129 6.863,-35.648c2.813,-10.552 5.501,-19.735 8.079,-27.532c3.039,-8.685 6.194,-16.79 9.284,-24.098Z"
             style="fill:#fff;fill-rule:nonzero;"
             id="path80" /></g></g></g><path
       d="M17704.7,30.055l-17696.1,0l0,17696.1l17696.1,0l0,-17696.1Zm-9026.63,2499.57c2415.51,0 4376.6,1961.09 4376.6,4376.6c-0,2415.51 -1961.09,4376.6 -4376.6,4376.6c-2415.51,-0 -4376.6,-1961.09 -4376.6,-4376.6c0,-2415.51 1961.09,-4376.6 4376.6,-4376.6Z"
       id="path88" /><text
       x="8876.6084"
       y="14030.008"
       style="font-weight:700;font-stretch:condensed;font-size:1600px;font-family:FranklinGothic-ExtraCond, 'Franklin Gothic';fill:#ffffff"
       id="text90"><tspan
         style="text-align:center;text-anchor:middle"
         id="tspan112">THE FLEXIBLES</tspan></text></g></svg>
